<svg width="56" height="55" viewBox="0 0 56 55" fill="none" xmlns="http://www.w3.org/2000/svg">
<path d="M47.1277 29.5389L55.4765 30.8626C55.5854 29.9916 55.6599 29.1035 55.6828 28.221H47.2251C47.2079 28.6794 47.1735 29.1149 47.1277 29.5389ZM46.5661 32.4613L54.6055 35.0685C54.8519 34.2262 55.0582 33.361 55.2244 32.4957L46.8813 31.172C46.7896 31.5903 46.6865 32.0144 46.5661 32.4613ZM45.5405 35.2576L53.0699 39.0968C53.4481 38.3004 53.7861 37.4809 54.0841 36.6501L46.0447 34.0371C45.8843 34.4497 45.7181 34.8623 45.5405 35.2576ZM44.1136 37.8649L50.9268 42.8157C51.431 42.0823 51.8952 41.3259 52.3135 40.5638L44.7955 36.736C44.5721 37.1429 44.3428 37.5153 44.1136 37.8649ZM42.2628 40.197L48.2336 46.1679C48.8353 45.5318 49.4083 44.8556 49.9527 44.1566L43.1223 39.1943C42.8587 39.5266 42.5722 39.859 42.2628 40.197ZM40.0911 42.2312L45.0534 49.0616C45.7639 48.5058 46.4401 47.9327 47.0647 47.3425L41.0938 41.3717C40.7615 41.6754 40.4234 41.9676 40.0911 42.2312ZM37.6271 43.9044L41.4548 51.4224C42.217 51.0041 42.9733 50.5342 43.7068 50.0357L38.7559 43.2168C38.4121 43.446 38.0397 43.6752 37.6271 43.9044ZM34.9282 45.1479L37.5411 53.1873C38.372 52.8893 39.1972 52.5455 39.9879 52.1731L36.1487 44.6379C35.7533 44.8213 35.3408 44.9932 34.9282 45.1479ZM33.3524 45.6693C32.8997 45.7954 32.4757 45.8985 32.0689 45.9788L33.3868 54.3219C34.2406 54.1614 35.1058 53.9494 35.9654 53.703L33.3524 45.6693ZM20.4252 44.6436L16.5917 52.1731C17.3825 52.5455 18.2019 52.8836 19.0385 53.1873L21.6514 45.1479C21.2274 44.9932 20.8206 44.8213 20.4252 44.6436ZM17.818 43.2168L12.8671 50.0357C13.6006 50.54 14.3569 51.0041 15.1248 51.4224L18.9525 43.9044C18.5342 43.6752 18.1618 43.446 17.818 43.2168ZM15.4858 41.3717L9.50924 47.3368C10.1453 47.9327 10.8157 48.5115 11.5205 49.0558L16.4828 42.2255C16.1562 41.9676 15.8181 41.6754 15.4858 41.3717ZM13.4516 39.1943L6.62124 44.1566C7.17133 44.8614 7.74435 45.5318 8.34028 46.1679L14.3111 40.197C14.0074 39.8704 13.7209 39.5323 13.4516 39.1943ZM11.7726 36.736L4.25468 40.5638C4.68444 41.3373 5.14858 42.0937 5.64711 42.8157L12.466 37.8649C12.2425 37.5268 12.0133 37.1543 11.7726 36.736ZM10.5292 34.0314L2.48979 36.6443C2.78776 37.4752 3.12584 38.3004 3.50403 39.0911L11.0392 35.2519C10.8558 34.8623 10.6896 34.4497 10.5292 34.0314ZM9.69833 31.1778L1.35522 32.5014C1.51567 33.361 1.72195 34.2262 1.97408 35.0743L10.0135 32.4671C9.88742 32.0086 9.78428 31.5846 9.69833 31.1778ZM9.34879 28.221H0.891083C0.919734 29.1035 0.988494 29.9916 1.09737 30.8626L9.4462 29.5389C9.40036 29.1149 9.37171 28.6794 9.34879 28.221ZM9.4462 25.2471L1.09737 23.9234C0.982763 24.7944 0.919734 25.6826 0.891083 26.565H9.34879C9.37171 26.1066 9.40036 25.6711 9.4462 25.2471ZM10.0135 22.3247L1.97408 19.7117C1.72195 20.5655 1.51567 21.4308 1.35522 22.2903L9.69833 23.6082C9.78428 23.1957 9.88742 22.7774 10.0135 22.3247ZM11.0392 19.5284L3.50403 15.6892C3.12584 16.4857 2.78776 17.3051 2.48979 18.1359L10.5292 20.7489C10.6896 20.3306 10.8616 19.9237 11.0392 19.5284ZM12.466 16.9211L5.64711 11.9703C5.14858 12.6923 4.68444 13.4487 4.25468 14.2222L11.7726 18.05C12.0133 17.6317 12.2425 17.2592 12.466 16.9211ZM14.3111 14.589L8.34028 8.61815C7.74435 9.2542 7.1656 9.93036 6.62124 10.6294L13.4516 15.5917C13.7266 15.2479 14.0131 14.9099 14.3111 14.589ZM16.4828 12.5548L11.5262 5.72442C10.8329 6.26306 10.1567 6.8418 9.51496 7.4492L15.4858 13.42C15.8239 13.1049 16.1562 12.8241 16.4828 12.5548ZM18.9468 10.8816L15.1191 3.3636C14.3569 3.7819 13.6006 4.25177 12.8614 4.75603L17.8122 11.5749C18.1618 11.34 18.5342 11.1108 18.9468 10.8816ZM21.6457 9.63812L19.0327 1.59298C18.1961 1.89668 17.3767 2.23476 16.5917 2.60722L20.4252 10.1366C20.8206 9.96474 21.2274 9.79283 21.6457 9.63812ZM23.2215 9.11667C23.6856 8.99061 24.1097 8.88747 24.505 8.80725L23.1814 0.464142C22.3219 0.624587 21.4566 0.836602 20.6085 1.083L23.2215 9.11667ZM23.1814 54.3219L24.505 45.9788C24.1039 45.8985 23.6799 45.7954 23.2215 45.6693L20.6085 53.703C21.4623 53.9551 22.3276 54.1614 23.1814 54.3219ZM26.1439 8.55512C26.5622 8.50928 26.9977 8.4749 27.4618 8.45771V0C26.5794 0.0229206 25.6969 0.0974126 24.8202 0.206286L26.1439 8.55512ZM24.8202 54.5797C25.6969 54.6886 26.5794 54.7574 27.4618 54.786V46.3283C26.9977 46.3111 26.5622 46.2767 26.1439 46.2309L24.8202 54.5797ZM30.4358 8.55512L31.7594 0.206286C30.8827 0.0916825 29.9945 0.0229206 29.1178 0V8.45771C29.5762 8.4749 30.0117 8.50928 30.4358 8.55512ZM29.1121 54.786C29.9945 54.7574 30.8827 54.6886 31.7537 54.5797L30.43 46.2309C30.0117 46.2767 29.5762 46.3111 29.1121 46.3283V54.786ZM33.3524 9.11667L35.9654 1.083C35.1116 0.830872 34.2463 0.624587 33.3868 0.464142L32.0689 8.80725C32.4757 8.88747 32.8997 8.99061 33.3524 9.11667ZM36.1487 10.1424L39.9879 2.60722C39.1914 2.23476 38.372 1.89095 37.5411 1.59298L34.9282 9.63239C35.3408 9.79283 35.7533 9.95901 36.1487 10.1424ZM38.7617 11.5692L43.7125 4.7503C42.9791 4.24604 42.2227 3.7819 41.4606 3.35787L37.6328 10.8758C38.0397 11.1108 38.4121 11.34 38.7617 11.5692ZM41.0938 13.4143L47.0647 7.4492C46.4229 6.84753 45.7467 6.26879 45.0534 5.72442L40.0911 12.5548C40.4234 12.8184 40.7558 13.1049 41.0938 13.4143ZM43.1223 15.5917L49.9527 10.6294C49.4083 9.92463 48.8296 9.2542 48.2336 8.61815L42.2628 14.589C42.5665 14.9156 42.8587 15.2537 43.1223 15.5917ZM44.8013 18.05L52.3192 14.2222C51.8952 13.4601 51.431 12.7038 50.9325 11.9703L44.1194 16.9211C44.3428 17.2707 44.572 17.6431 44.8013 18.05ZM46.0447 20.7546L54.0841 18.1417C53.7861 17.3108 53.4423 16.4857 53.0699 15.6949L45.5405 19.5341C45.7181 19.9237 45.8843 20.3306 46.0447 20.7546ZM46.8756 23.6082L55.2187 22.2903C55.0525 21.425 54.8462 20.5598 54.5998 19.7117L46.5604 22.3247C46.6865 22.7716 46.7896 23.1957 46.8756 23.6082ZM47.2251 26.565H55.6828C55.6599 25.6826 55.5854 24.7944 55.4765 23.9234L47.1277 25.2471C47.1735 25.6711 47.2079 26.1066 47.2251 26.565Z" fill="#E53517"/>
</svg>
