<?xml version="1.0" encoding="UTF-8" standalone="no"?>
<!-- Created with Inkscape (http://www.inkscape.org/) -->

<svg
   width="210mm"
   height="297mm"
   viewBox="0 0 210 297"
   version="1.1"
   id="svg5"
   xmlns="http://www.w3.org/2000/svg"
   xmlns:svg="http://www.w3.org/2000/svg">
  <defs
     id="defs2">
    <clipPath
       id="clip0_101_65">
      <rect
         width="130"
         height="67.8221"
         fill="white"
         id="rect145" />
    </clipPath>
  </defs>
  <g
     id="layer1">
    <g
       style="fill:none"
       id="g162"
       transform="matrix(0.26458333,0,0,0.26458333,31.226884,158.2207)">
      <g
         clip-path="url(#clip0_101_65)"
         id="g143">
        <path
           d="M 97.2923,53.4852 V 28.5763 h 6.9107 v 24.9089 h 4.75 V 1.50702 h -4.75 V 24.4735 H 97.2923 V 1.50702 H 92.542 V 53.4852 Z"
           fill="#f29400"
           id="path131" />
        <path
           d="M 26.9604,53.4852 V 5.61554 h 7.4148 V 1.50702 H 22.2043 V 53.4852 Z"
           fill="#f29400"
           id="path133" />
        <path
           d="M 4.80761,45.4172 V 10.0049 c 0,-3.45533 1.1976,-5.1801 3.59854,-5.1801 2.30355,0 3.45525,1.82219 3.45525,5.4723 v 34.6846 c 0,3.312 -1.2491,4.9681 -3.74176,4.9681 -2.21184,0 -3.31203,-1.5128 -3.31203,-4.5326 z m 9.50059,6.584 c 1.5357,-1.2721 2.3035,-3.1516 2.3035,-5.65 V 9.8616 c 0,-5.90206 -2.7619,-8.85309 -8.28005,-8.85309 -2.87653,0 -4.9795,0.71054 -6.29744,2.12589 -1.31793,1.41535 -1.976898,3.61 -1.976898,6.58395 V 45.4172 c 0,2.6874 0.721999,4.7732 2.160268,6.2631 1.43827,1.4898 3.4782,2.229 6.1198,2.229 2.44102,0 4.43512,-0.6361 5.97082,-1.9081 z"
           fill="#f29400"
           id="path137" />
        <path
           d="m 119.273,28.221 h 2.304 c 1.197,0 2.108,0.2292 2.733,0.6819 0.625,0.4584 0.934,1.3065 0.934,2.5556 v 14.6864 c 0,1.2492 -0.315,2.103 -0.934,2.5557 -0.625,0.4584 -1.536,0.6819 -2.733,0.6819 h -2.304 z m 2.808,25.2643 c 3.025,0 5.1,-0.5731 6.229,-1.7248 1.128,-1.1518 1.69,-3.2146 1.69,-6.1943 V 32.0373 c 0,-2.974 -0.567,-5.0425 -1.69,-6.1943 -1.129,-1.1518 -3.204,-1.7248 -6.229,-1.7248 h -2.808 V 1.51276 h -4.75 V 53.491 h 7.558 z"
           fill="#f29400"
           id="path139" />
        <path
           d="m 126.803,64.0058 h 1.025 c 0.264,0 0.464,0.0745 0.613,0.2235 0.149,0.149 0.218,0.3553 0.218,0.6246 0,0.2636 -0.069,0.4584 -0.212,0.5959 -0.143,0.1318 -0.338,0.2006 -0.59,0.2006 h -1.06 v -1.6446 z m 0,-3.1917 h -1.244 v 5.7932 h 2.029 c 0.521,0 0.911,-0.0344 1.163,-0.1031 0.389,-0.1089 0.687,-0.3037 0.894,-0.5845 0.206,-0.2808 0.309,-0.6418 0.309,-1.0658 0,-0.7048 -0.241,-1.2148 -0.728,-1.5242 -0.292,-0.1891 -0.722,-0.2808 -1.277,-0.2808 h -1.146 z m -6.006,5.7932 v -2.527 h 2.206 v 2.527 h 1.244 v -5.7932 h -1.244 v 2.3093 h -2.206 v -2.3093 h -1.243 v 5.7932 z m -2.349,0 v -0.9627 h -2.728 v -1.5643 h 2.47 v -0.9455 h -2.47 v -1.3695 h 2.642 v -0.9454 h -3.885 v 5.7931 h 3.971 z m -8.727,-0.9627 c 0.229,-0.4068 0.401,-0.9168 0.51,-1.5356 0.109,-0.6189 0.166,-1.2148 0.166,-1.7936 v -0.5615 h 1.295 v 3.8907 z m 3.782,0 h -0.567 v -4.8305 h -3.782 v 0.7163 c 0,0.4298 -0.006,0.785 -0.017,1.0658 -0.012,0.2865 -0.046,0.6131 -0.098,0.9971 -0.051,0.3781 -0.132,0.7391 -0.252,1.0772 -0.115,0.3381 -0.264,0.6647 -0.453,0.9799 h -0.407 v 2.1774 h 1.244 v -1.209 h 3.088 v 1.209 h 1.244 z m -10.148,-3.1515 h 0.023 v 4.1142 h 1.186 v -5.7932 h -1.341 l -2.143,4.1028 h -0.023 v -4.1028 h -1.1862 v 5.7932 h 1.3242 z m -0.487,-3.4267 c -0.058,0.384 -0.27,0.5788 -0.625,0.5788 -0.367,0 -0.584,-0.1948 -0.642,-0.5788 h -0.555 c 0.022,0.3782 0.131,0.6762 0.338,0.8767 0.2,0.2063 0.487,0.3095 0.859,0.3095 0.367,0 0.648,-0.1032 0.848,-0.3152 0.201,-0.2063 0.31,-0.4985 0.333,-0.8767 h -0.556 z m -9.243,4.9394 h 1.0257 c 0.2636,0 0.4641,0.0745 0.6131,0.2235 0.149,0.149 0.2178,0.3553 0.2178,0.6246 0,0.2636 -0.0688,0.4584 -0.2121,0.5959 -0.1432,0.1318 -0.338,0.2006 -0.5902,0.2006 h -1.06 v -1.6446 z m 0,-3.1917 h -1.2435 v 5.7932 H 94.41 c 0.5215,0 0.9111,-0.0344 1.1632,-0.1031 0.3897,-0.1089 0.6877,-0.3037 0.8939,-0.5845 0.2063,-0.2808 0.3095,-0.6418 0.3095,-1.0658 0,-0.7048 -0.2464,-1.2148 -0.7335,-1.5242 -0.2922,-0.1891 -0.7163,-0.2808 -1.2778,-0.2808 h -1.146 v -2.2348 z m 3.6845,5.7932 h 1.2434 v -5.7932 h -1.2434 z m -9.6439,-0.9627 c 0.2292,-0.4068 0.4011,-0.9168 0.51,-1.5356 0.1089,-0.6189 0.1662,-1.2148 0.1662,-1.7936 v -0.5615 h 1.295 v 3.8907 z m 3.7762,0 h -0.5673 v -4.8305 h -3.7819 v 0.7163 c 0,0.4298 -0.0057,0.785 -0.0229,1.0658 -0.0115,0.2865 -0.0459,0.6131 -0.0974,0.9971 -0.0516,0.3781 -0.1318,0.7391 -0.2464,1.0772 -0.1146,0.3381 -0.2636,0.6647 -0.4527,0.9799 h -0.4068 v 2.1774 h 1.2434 v -1.209 h 3.0886 v 1.209 h 1.2434 z m -8.5551,-2.2404 2.1259,-2.5901 h -1.4383 l -1.9253,2.5041 h -0.0172 v -2.5041 h -1.2034 v 2.5041 h -0.0171 l -1.9254,-2.5041 h -1.4382 l 2.1258,2.5901 -2.3092,3.2031 H 78.4 l 2.0113,-2.951 h 0.0171 v 2.951 h 1.2034 v -2.951 h 0.0172 l 2.0112,2.951 h 1.5357 z m -10.3372,1.0142 0.8595,-2.464 0.8022,2.464 z m -1.9425,2.1889 h 1.1861 l 0.4355,-1.2492 h 2.2978 l 0.4183,1.2492 h 1.2549 l -2.017,-5.7932 h -1.4784 z m -4.1831,0 V 63.662 l 2.0285,2.9453 h 1.5472 l -2.3093,-3.1917 2.1259,-2.6015 h -1.4555 l -1.9425,2.5098 v -2.5098 h -1.2434 v 5.7932 z m -8.3144,-2.1889 0.8595,-2.464 0.8022,2.464 z m -1.9425,2.1889 h 1.1861 l 0.4355,-1.2492 h 2.2978 l 0.4183,1.2492 h 1.2492 l -2.0113,-5.7932 h -1.4784 z m -4.3263,0 v -2.527 h 2.2061 v 2.527 h 1.2435 v -5.7932 h -1.2435 v 2.3093 h -2.2061 v -2.3093 h -1.2434 v 5.7932 z m -8.3316,-2.1889 0.8595,-2.464 0.8022,2.464 z m -1.9426,2.1889 h 1.1862 l 0.4355,-1.2492 h 2.2978 l 0.4183,1.2492 h 1.2549 l -2.017,-5.7932 h -1.4784 z m -4.1772,0 V 63.662 l 2.0284,2.9453 h 1.5472 l -2.3093,-3.1917 2.1259,-2.6015 H 39.326 l -1.9425,2.5098 v -2.5098 h -1.2434 v 5.7932 z m -2.9052,-5.3462 c -0.4011,-0.3782 -0.9226,-0.5673 -1.5586,-0.5673 -0.8596,0 -1.5185,0.2808 -1.9712,0.8538 -0.4527,0.5673 -0.6819,1.3294 -0.6819,2.2863 0,0.9168 0.2349,1.6274 0.6991,2.1431 0.4641,0.5157 1.1116,0.7678 1.9425,0.7678 0.9283,0 1.5815,-0.338 1.9654,-1.0085 0.086,-0.149 0.1433,-0.2922 0.1777,-0.424 0.0344,-0.1318 0.063,-0.3266 0.0745,-0.5787 h -1.3065 c -0.0115,0.338 -0.1089,0.6073 -0.298,0.8022 -0.1891,0.2005 -0.4355,0.2979 -0.7392,0.2979 -0.3953,0 -0.699,-0.1719 -0.9053,-0.5099 -0.2063,-0.3381 -0.3152,-0.8309 -0.3152,-1.4784 0,-0.6876 0.1146,-1.2435 0.3496,-1.656 0.2349,-0.4126 0.5501,-0.6189 0.9569,-0.6189 0.2693,0 0.4813,0.1032 0.6475,0.3037 0.1604,0.2006 0.2636,0.4756 0.2922,0.8194 H 35.08 c 0.0057,-0.5787 -0.1948,-1.0543 -0.5959,-1.4325 z m -6.498,1.232 h 0.0229 v 4.1142 h 1.1861 v -5.7932 h -1.3408 l -2.1431,4.1028 h -0.0229 v -4.1028 h -1.1862 v 5.7932 h 1.3237 z m -8.2629,-0.7335 h 2.2061 v 4.8477 h 1.2434 v -5.7932 h -4.693 v 5.7932 h 1.2435 z m -5.9823,3.885 c 0.2292,-0.4068 0.4011,-0.9168 0.51,-1.5356 0.1089,-0.6189 0.1662,-1.2148 0.1662,-1.7936 v -0.5615 h 1.2893 v 3.8907 z m 3.7819,0 h -0.5673 v -4.8305 h -3.7819 v 0.7163 c 0,0.4298 -0.0057,0.785 -0.0229,1.0658 -0.0115,0.2865 -0.0458,0.6131 -0.0974,0.9971 -0.0516,0.3781 -0.1318,0.7391 -0.2464,1.0772 -0.1146,0.3381 -0.2636,0.6647 -0.4527,0.9799 h -0.4068 v 2.1774 h 1.2434 v -1.209 h 3.0886 v 1.209 h 1.2434 z M 7.16842,62.9457 c 0.04584,-0.2349 0.12034,-0.4584 0.22348,-0.6761 0.10314,-0.2178 0.25786,-0.3839 0.46414,-0.51 0.20629,-0.1203 0.44695,-0.1834 0.73919,-0.1834 0.28078,0 0.51571,0.0631 0.71627,0.1834 0.20056,0.1261 0.35527,0.2865 0.45841,0.4985 0.10314,0.2063 0.17764,0.4241 0.22348,0.6475 0.04581,0.2235 0.06871,0.4699 0.06871,0.7278 0,1.4612 -0.49274,2.1889 -1.47833,2.1889 -0.99132,0 -1.48411,-0.7106 -1.48411,-2.1259 0,-0.2636 0.02292,-0.5157 0.06876,-0.7507 z m -0.63604,3.0198 c 0.48706,0.5215 1.16895,0.7793 2.03993,0.7793 0.90536,0 1.59299,-0.2807 2.07429,-0.848 0.4756,-0.5673 0.7163,-1.3122 0.7163,-2.2405 0,-0.8997 -0.2407,-1.6159 -0.722,-2.1546 -0.4813,-0.5386 -1.16896,-0.8079 -2.0514,-0.8079 -0.87671,0 -1.5586,0.275 -2.05139,0.8194 -0.48707,0.5444 -0.73346,1.3065 -0.73346,2.2806 -0.00573,0.9283 0.24066,1.656 0.72773,2.1717 z M 1.24344,61.7596 h 2.20611 v 4.8477 H 4.693 V 60.8141 H 0 v 5.7932 h 1.24344 z"
           fill="#e53517"
           id="path141" />
      </g>
    </g>
  </g>
</svg>
